<?xml version="1.0" standalone="no"?>
<!DOCTYPE svg PUBLIC "-//W3C//DTD SVG 20010904//EN"
 "http://www.w3.org/TR/2001/REC-SVG-20010904/DTD/svg10.dtd">
<svg version="1.0" xmlns="http://www.w3.org/2000/svg"
 width="2560.000000pt" height="1440.000000pt" viewBox="0 0 2560.000000 1440.000000"
 preserveAspectRatio="xMidYMid meet">

<g transform="translate(0.000000,1440.000000) scale(0.100000,-0.100000)"
fill="#000000" stroke="none">
<path d="M0 7200 l0 -7200 9245 0 9245 0 -2 5942 c-1 3269 -4 5917 -5 5886 -2
-32 -8 -58 -13 -58 -5 0 -11 -35 -13 -77 -2 -43 -2 -31 0 27 3 58 9 175 15
260 5 85 11 665 14 1288 l5 1132 -9246 0 -9245 0 0 -7200z m18086 6926 c-8
-219 -11 -246 -32 -246 -10 0 -14 24 -16 103 l-3 102 -73 0 c-54 0 -75 -4 -82
-15 -5 -8 -10 -51 -10 -96 0 -53 -5 -87 -14 -100 -13 -17 -15 -17 -21 -3 -8
20 8 445 17 454 19 19 28 -14 28 -100 0 -80 3 -96 18 -103 24 -13 129 -3 143
14 6 7 13 51 16 96 5 97 9 112 24 102 9 -5 10 -62 5 -208z m-2822 87 c4 -9 4
-116 0 -238 -6 -182 -5 -223 7 -230 7 -5 53 -8 102 -6 88 2 89 2 85 -21 -3
-20 -10 -24 -58 -30 -30 -3 -85 -6 -123 -7 l-67 -1 6 263 c3 144 7 268 10 275
5 18 31 15 38 -5z m-2634 -143 c12 -7 15 -79 22 -447 4 -241 12 -656 17 -923
18 -853 20 -945 26 -1536 7 -577 7 -581 -13 -586 -38 -10 -42 8 -42 217 0 110
-4 355 -10 545 -5 190 -12 505 -15 700 -3 195 -10 544 -15 775 -12 547 -16
1238 -6 1253 9 14 16 15 36 2z m1487 -173 c15 -16 17 -149 17 -1510 1 -1410 0
-1494 -16 -1511 -15 -14 -18 -37 -20 -119 l-1 -102 -8 115 c-13 201 -19 650
-19 1575 0 495 -1 943 -2 995 -5 211 2 433 19 610 l8 85 3 -60 c2 -37 9 -66
19 -78z m-2335 -517 c8 -29 27 -698 20 -717 -2 -7 -14 -13 -27 -13 -20 0 -23
6 -29 78 -10 121 -20 647 -13 666 10 25 40 15 49 -14z m139 -345 c6 -180 0
-219 -29 -213 -21 4 -29 69 -31 244 -1 123 6 148 39 142 12 -3 16 -32 21 -173z
m124 63 c4 -62 5 -144 3 -183 -3 -63 -5 -70 -25 -73 -17 -2 -24 3 -27 20 -8
41 -17 314 -10 331 3 10 16 17 29 17 22 0 23 -4 30 -112z m-387 80 c18 -18 17
-364 -1 -371 -35 -13 -41 8 -45 182 -3 93 -2 177 1 185 8 19 28 21 45 4z
m-130 -10 c5 -7 13 -90 17 -184 6 -141 4 -172 -7 -182 -11 -9 -18 -9 -31 1
-22 16 -37 337 -17 362 15 18 24 19 38 3z m-2404 -61 c7 -47 26 -373 26 -438
0 -61 -18 -91 -39 -65 -7 8 -18 115 -28 264 -13 201 -14 254 -4 266 18 22 40
9 45 -27z m149 -37 c4 -41 11 -156 16 -255 6 -146 5 -183 -5 -195 -9 -9 -17
-11 -23 -5 -19 20 -51 512 -34 528 4 4 14 6 23 5 11 -2 17 -23 23 -78z m-295
43 c11 -31 27 -257 43 -628 6 -132 14 -310 18 -395 5 -119 4 -158 -6 -169 -7
-8 -15 -12 -18 -9 -7 6 -20 149 -35 373 -5 77 -14 196 -19 265 -17 204 -33
542 -26 567 7 31 30 29 43 -4z m-140 -203 c16 -250 16 -326 -2 -333 -8 -3 -19
0 -24 6 -9 12 -30 296 -34 450 -1 58 2 81 12 87 27 17 37 -25 48 -210z m1157
193 c4 -10 15 -175 26 -368 10 -192 26 -467 34 -610 17 -272 20 -337 16 -370
-2 -11 2 -119 8 -240 6 -121 14 -311 18 -422 5 -179 4 -203 -9 -203 -37 0 -34
-20 -57 500 -6 135 -17 281 -23 325 -7 44 -11 120 -9 170 1 49 -2 150 -8 225
-6 74 -15 241 -21 370 -6 129 -15 318 -20 420 -8 185 -5 220 24 220 8 0 17 -8
21 -17z m2908 -248 c4 -137 9 -502 10 -810 l2 -560 -25 0 -25 0 -6 220 c-11
409 -22 1372 -16 1389 4 11 15 16 29 14 23 -3 23 -4 31 -253z m-4225 119 c7
-65 13 -182 15 -259 2 -119 0 -140 -13 -140 -20 0 -26 43 -40 293 -12 204 -10
237 13 230 8 -3 17 -47 25 -124z m4096 117 c7 -12 38 -1393 34 -1521 l-3 -95
-27 -3 c-22 -3 -28 1 -32 20 -11 53 -29 1592 -19 1602 9 9 41 7 47 -3z m-1915
-53 c10 -49 40 -713 36 -783 -1 -16 -3 -40 -3 -52 -1 -13 -6 -23 -11 -23 -4 0
-11 44 -14 98 -4 53 -11 158 -16 232 -10 134 -15 580 -7 580 3 0 9 -24 15 -52z
m-581 25 c9 -18 14 -98 32 -523 5 -129 12 -263 15 -296 5 -50 3 -64 -11 -78
-41 -41 -46 -14 -64 319 -17 314 -24 561 -17 579 8 21 34 20 45 -1z m2264 -41
c3 -30 9 -239 13 -465 4 -266 10 -420 17 -434 8 -16 8 -30 1 -46 -7 -16 -9
-118 -3 -323 7 -312 7 -317 -35 -312 -19 3 -20 13 -26 178 -4 96 -8 265 -9
375 -1 110 -6 395 -12 634 -9 364 -8 435 3 442 29 19 44 5 51 -49z m-2405 36
c10 -13 23 -202 44 -651 9 -187 9 -240 -1 -252 -17 -20 -36 -19 -45 3 -6 17
-27 368 -41 709 -5 133 -4 176 6 188 15 18 24 19 37 3z m2288 -190 c22 -615
33 -1416 21 -1437 -11 -17 -34 -13 -44 7 -6 9 -12 148 -14 307 -3 160 -10 301
-15 315 -7 16 -7 32 -1 46 6 13 6 189 0 480 -7 319 -7 463 0 471 6 7 18 13 28
13 16 0 18 -18 25 -202z m-2551 34 c3 -64 11 -178 16 -252 14 -202 23 -494 15
-519 -7 -24 -27 -27 -43 -8 -11 13 -20 147 -43 651 -12 240 -11 250 7 263 31
23 42 -7 48 -135z m4460 132 c14 -6 16 -82 16 -759 0 -677 -2 -753 -16 -759
-46 -18 -44 -54 -44 753 0 598 3 760 13 764 6 3 13 6 14 6 1 1 8 -2 17 -5z
m-4619 -15 c14 -22 62 -865 52 -893 -10 -25 -46 -20 -51 7 -6 29 -23 323 -37
625 -9 190 -8 246 1 257 15 18 26 19 35 4z m896 -68 c0 -20 6 -166 13 -326 7
-169 9 -304 4 -322 -10 -36 -32 -44 -42 -16 -4 10 -14 175 -22 366 -12 278
-12 352 -2 364 11 13 14 12 30 -7 10 -12 18 -39 19 -59z m3629 -685 c0 -719
-1 -764 -17 -768 -44 -12 -43 -34 -43 756 0 785 -1 776 42 776 17 0 18 -35 18
-764z m-3229 470 c5 -138 10 -279 13 -313 2 -44 0 -63 -8 -63 -26 0 -35 88
-37 360 -2 318 -2 312 13 286 6 -11 14 -122 19 -270z m3019 -496 l0 -770 -30
0 -30 0 0 763 c0 420 3 767 7 770 3 4 17 7 30 7 l23 0 0 -770z m-112 -12 l-3
-773 -22 -3 c-13 -2 -24 -2 -25 0 -2 2 -16 737 -15 793 4 492 8 733 12 743 2
6 16 12 30 12 l25 0 -2 -772z m-3177 611 c22 -438 22 -499 7 -499 -19 0 -25
78 -34 414 -6 192 -4 228 7 224 11 -3 16 -38 20 -139z m393 -11 c12 -113 17
-408 7 -408 -15 0 -21 69 -24 278 -3 190 5 250 17 130z m5036 -145 c0 -71 -4
-281 -10 -468 -5 -187 -14 -542 -20 -790 -13 -588 -19 -705 -36 -705 -7 0 -16
4 -19 10 -3 5 -1 226 5 492 6 265 15 691 20 946 5 256 13 505 16 553 6 78 9
89 25 89 18 0 19 -10 19 -127z m-2835 -470 c5 -274 9 -763 9 -1088 l1 -590
-26 -3 -27 -3 -7 123 c-7 141 -23 2027 -17 2046 2 6 17 12 32 12 l28 0 7 -497z
m2190 315 c1 -29 5 -65 10 -80 4 -16 4 -36 0 -45 -4 -10 -8 -81 -10 -158 -14
-647 -18 -725 -33 -725 -12 0 -14 57 -11 433 1 237 -1 440 -6 451 -5 11 -4 26
3 37 7 10 12 36 12 58 0 104 30 130 35 29z m1881 -220 c-9 -293 -22 -683 -36
-1028 -6 -140 -15 -363 -20 -495 -8 -231 -13 -275 -30 -275 -19 0 -19 1 9 880
6 184 13 358 16 385 3 28 10 185 15 350 12 368 17 425 38 425 13 0 14 -28 8
-242z m-3846 -12 c0 -30 5 -58 11 -62 7 -4 8 -19 5 -38 -4 -17 -7 -223 -6
-458 1 -424 0 -427 -20 -438 -48 -26 -47 -29 -52 439 -2 242 -7 444 -12 448
-4 4 -14 0 -21 -10 -11 -15 -12 -99 -8 -452 l6 -434 -27 -7 c-15 -3 -32 -2
-36 2 -5 5 -12 205 -16 444 -4 243 -11 440 -16 447 -6 7 -5 19 1 32 6 11 11
40 11 65 0 36 4 48 21 56 34 19 48 5 51 -52 2 -41 7 -54 21 -56 14 -3 17 4 17
43 0 59 14 85 45 85 24 0 25 -3 25 -54z m2138 -529 c-11 -18 -13 28 -16 267
-2 225 1 291 10 297 19 12 24 -532 6 -564z m-79 356 c-1 -263 -9 -375 -28
-381 -11 -4 -13 42 -9 279 2 156 7 290 11 297 22 35 27 -1 26 -195z m-2395 45
c3 -79 8 -313 11 -520 l6 -378 -26 -12 c-20 -9 -28 -9 -38 1 -9 9 -13 136 -16
517 -2 277 -1 511 3 519 3 8 16 15 30 15 l24 0 6 -142z m2197 -154 c-3 -279
-10 -337 -33 -302 -8 13 0 575 9 591 3 4 10 6 16 4 9 -3 11 -80 8 -293z
m-2309 11 c4 -148 7 -385 5 -525 l-2 -255 -26 -3 c-26 -3 -27 -1 -31 50 -2 29
-5 163 -6 298 -1 135 -5 343 -8 462 -7 232 -4 252 40 246 20 -3 21 -10 28
-273z m2218 178 c0 -54 -3 -189 -7 -300 -5 -160 -9 -203 -20 -203 -10 0 -13
53 -13 284 0 156 3 291 6 300 3 9 12 16 20 16 11 0 14 -21 14 -97z m-4443 -95
c-3 -7 -5 -2 -5 12 0 14 2 19 5 13 2 -7 2 -19 0 -25z m7523 -95 c0 -64 -4
-103 -9 -97 -8 8 -3 204 5 204 2 0 4 -48 4 -107z m-7510 57 c0 -5 -4 -10 -10
-10 -5 0 -10 5 -10 10 0 6 5 10 10 10 6 0 10 -4 10 -10z m5434 -169 c-7 -60
-16 -77 -33 -67 -15 10 -14 129 1 144 23 23 39 -15 32 -77z m-90 -5 c-7 -67
-11 -76 -29 -76 -12 0 -15 14 -15 74 0 50 4 76 13 79 23 9 36 -23 31 -77z
m1231 -12 c0 -145 -25 -737 -31 -761 -4 -13 -12 -23 -19 -23 -20 0 -22 32 -13
225 28 671 27 660 52 652 7 -2 11 -36 11 -93z m77 -110 c-3 -273 -22 -647 -34
-659 -15 -17 -28 16 -28 75 -1 75 31 762 36 778 2 8 10 12 17 9 9 -3 11 -51 9
-203z m765 -16 c-1 -40 -3 -8 -3 72 0 80 2 112 3 73 2 -40 2 -106 0 -145z
m-1017 -157 c-17 -465 -22 -526 -40 -526 -11 0 -16 14 -18 50 -6 92 29 809 41
823 26 32 29 -26 17 -347z m-2441 340 c12 -8 13 -97 7 -593 -6 -526 -9 -584
-24 -596 -9 -7 -21 -11 -27 -9 -7 3 -10 194 -9 597 1 489 4 594 15 601 17 11
21 11 38 0z m1199 -63 c2 -58 0 -68 -16 -77 -26 -14 -33 13 -25 92 5 46 9 57
22 55 12 -3 17 -18 19 -70z m-93 -11 c0 -48 -4 -70 -15 -77 -23 -15 -30 -2
-30 60 0 70 7 92 29 88 13 -3 16 -17 16 -71z m1261 48 c3 -14 3 -58 0 -98 -4
-39 -11 -209 -16 -377 -10 -326 -15 -380 -35 -380 -23 0 -24 26 -15 217 5 104
12 287 15 408 4 121 9 228 11 238 8 26 33 21 40 -8z m-400 -20 c3 -13 1 -150
-6 -302 -6 -153 -15 -406 -20 -563 -9 -289 -14 -334 -34 -327 -8 3 -11 61 -10
193 2 275 23 975 30 1002 8 30 32 28 40 -3z m-1758 -150 c1 -82 0 -160 -3
-171 -6 -26 -41 -38 -49 -17 -8 20 -8 307 0 328 4 9 15 15 28 13 20 -3 21 -9
24 -153z m1928 -74 c-8 -241 -11 -271 -32 -271 -12 0 -14 36 -14 213 0 223 9
291 36 280 14 -5 15 -31 10 -222z m-2028 50 c3 -170 -2 -191 -39 -191 -18 0
-19 10 -19 173 0 96 3 177 7 181 4 4 16 6 28 4 19 -3 20 -11 23 -167z m1942
150 c10 -20 -3 -442 -16 -475 -3 -9 -13 -16 -22 -16 -13 0 -14 28 -9 238 3
130 8 245 12 255 9 22 22 22 35 -2z m1481 -116 l-8 -80 -2 85 c-1 89 11 167
17 105 1 -16 -2 -66 -7 -110z m-3626 -64 c0 -149 -2 -175 -16 -184 -9 -6 -24
-7 -33 -4 -14 6 -16 28 -16 176 0 151 2 171 18 180 44 27 47 16 47 -168z
m1967 -61 c-3 -253 -5 -273 -30 -268 -15 3 -17 19 -15 148 1 80 5 191 8 248 6
88 9 103 23 100 15 -3 17 -26 14 -228z m-2064 43 l-3 -178 -30 0 -30 0 -3 145
c-2 80 0 160 3 178 5 28 10 32 36 32 l29 0 -2 -177z m1974 -68 c-4 -243 -9
-278 -39 -253 -12 10 -13 40 -8 172 10 285 15 328 33 324 15 -3 17 -26 14
-243z m1265 -62 c-4 -87 -10 -236 -13 -330 -4 -99 -11 -173 -17 -173 -5 0 -7
-10 -3 -23 3 -13 1 -36 -4 -52 -7 -22 -9 -6 -5 60 3 50 7 158 10 240 6 171 26
435 33 435 3 0 2 -71 -1 -157z m-10867 -58 c0 -66 -2 -75 -18 -75 -25 0 -42
40 -42 98 0 56 14 76 42 61 15 -8 18 -22 18 -84z m158 24 c2 -52 0 -68 -12
-72 -18 -7 -31 14 -41 65 -10 51 1 80 28 76 20 -3 22 -10 25 -69z m-333 21
c10 -20 15 -50 13 -83 -3 -44 -6 -52 -25 -55 -18 -3 -23 4 -32 48 -10 45 -7
89 6 113 9 15 23 6 38 -23z m11114 -195 c-4 -115 -12 -221 -18 -235 -8 -19
-10 8 -6 105 10 259 17 357 24 349 5 -5 5 -103 0 -219z m-11270 147 c16 -61 9
-102 -19 -102 -32 0 -55 121 -28 148 20 20 32 8 47 -46z m11110 -182 c-4 -113
-12 -216 -18 -230 -8 -19 -10 16 -6 145 7 220 16 335 24 310 4 -11 4 -112 0
-225z m-88 -115 l-8 -130 -1 175 c-1 96 2 200 6 230 6 50 7 47 10 -45 1 -55
-2 -158 -7 -230z m316 23 c-1 -57 -3 -11 -3 102 0 113 2 159 3 103 2 -57 2
-149 0 -205z m-12487 212 c14 -27 23 -162 12 -179 -27 -39 -62 30 -62 125 0
66 27 96 50 54z m-171 -78 c15 -70 12 -106 -11 -110 -12 -2 -20 7 -27 35 -12
43 -15 116 -4 126 17 18 30 2 42 -51z m8708 -1084 c-2 -29 -3 -6 -3 52 0 58 1
81 3 53 2 -29 2 -77 0 -105z m-2241 8 c7 -28 -50 -172 -102 -258 -117 -193
-227 -538 -274 -861 -25 -169 -27 -408 -4 -509 15 -65 15 -71 -1 -87 -15 -15
-18 -14 -35 7 -32 39 -45 126 -44 302 1 191 19 327 71 547 36 149 37 193 4
143 -102 -156 -320 -412 -361 -425 -11 -3 -29 -1 -41 5 -19 11 -21 18 -16 61
7 55 9 55 -62 1 -99 -75 -182 -100 -217 -65 -14 14 -16 29 -10 93 3 41 9 91
12 110 6 33 0 28 -105 -82 -152 -160 -201 -187 -237 -133 -14 22 -15 34 -5 82
6 31 9 58 8 60 -2 2 -21 -4 -42 -13 -66 -27 -124 0 -174 83 -10 16 -16 13 -60
-34 -36 -38 -75 -104 -146 -243 -81 -159 -101 -191 -122 -196 -32 -8 -53 16
-53 60 1 89 58 291 137 481 50 120 72 151 98 141 22 -8 17 -29 -50 -191 -59
-144 -98 -267 -93 -293 3 -10 29 32 62 98 121 239 233 327 281 223 25 -54 44
-73 75 -73 36 0 112 50 195 130 38 37 80 72 92 79 33 17 72 13 108 -9 l33 -21
34 43 c19 24 52 67 72 96 29 40 44 52 60 50 34 -5 30 -35 -17 -137 -80 -169
-129 -351 -96 -351 44 0 283 181 311 235 74 139 182 216 220 155 7 -11 17 -20
23 -20 13 0 165 228 203 305 16 33 44 101 62 150 33 93 109 242 136 270 24 24
63 19 70 -9z m-2053 -28 c3 -7 2 -35 -1 -62 l-5 -49 54 7 c180 22 530 56 580
56 45 0 61 -4 66 -16 3 -8 1 -20 -5 -26 -5 -5 -95 -19 -198 -29 -343 -35 -495
-56 -510 -71 -27 -27 -141 -563 -223 -1041 -51 -302 -63 -340 -97 -306 -14 14
-10 45 36 320 53 311 115 624 169 852 42 172 42 171 -11 163 -24 -3 -83 -15
-133 -26 -304 -67 -467 -99 -480 -94 -18 7 -19 28 -2 42 10 8 490 116 612 138
60 10 73 20 85 67 6 23 15 52 20 65 10 24 35 30 43 10z m4294 -310 c-3 -8 -6
-5 -6 6 -1 11 2 17 5 13 3 -3 4 -12 1 -19z m0 -70 c-3 -7 -5 -2 -5 12 0 14 2
19 5 13 2 -7 2 -19 0 -25z m0 -60 c-3 -8 -6 -5 -6 6 -1 11 2 17 5 13 3 -3 4
-12 1 -19z m-2166 -148 c23 -13 24 -37 2 -62 -29 -32 -73 -16 -73 27 0 40 32
55 71 35z m469 -14 c9 -12 -5 -58 -74 -236 -47 -122 -86 -231 -86 -243 0 -13
22 13 61 72 73 111 192 237 233 247 58 14 81 -22 96 -154 16 -145 31 -163 102
-119 54 33 207 186 255 255 67 96 202 182 289 182 71 0 139 -48 150 -107 8
-42 22 -42 65 3 52 55 86 76 109 69 30 -10 26 -49 -24 -203 -42 -128 -126
-413 -126 -426 0 -19 28 2 83 61 94 101 389 363 408 363 22 0 32 -15 25 -38
-4 -10 -77 -82 -164 -160 -230 -206 -377 -363 -421 -449 -10 -21 -42 -105 -71
-188 -67 -191 -127 -318 -224 -475 -83 -133 -154 -225 -235 -305 -28 -27 -51
-52 -51 -56 0 -3 31 -9 69 -13 81 -8 122 -31 162 -91 55 -80 45 -139 -56 -350
-120 -252 -325 -470 -461 -491 -82 -12 -142 50 -124 129 14 63 60 128 169 241
111 113 234 221 358 313 85 63 94 90 44 145 -29 33 -31 33 -118 33 -82 0 -94
-3 -170 -39 -80 -38 -113 -41 -113 -12 0 19 41 60 164 166 98 85 195 189 244
262 21 33 23 42 13 64 -18 40 -13 106 15 189 14 42 24 79 22 81 -11 10 -104
-64 -173 -138 -160 -170 -361 -514 -556 -952 -54 -122 -72 -146 -105 -146 -32
0 -38 30 -31 154 13 214 70 476 176 799 99 300 90 279 115 275 12 -2 22 -11
24 -24 2 -11 -36 -141 -83 -290 -56 -175 -98 -328 -120 -439 -33 -165 -52
-305 -43 -305 3 0 60 109 126 243 278 558 501 853 679 899 37 9 48 18 79 69
19 33 72 108 117 167 44 59 88 121 98 137 21 36 201 632 197 652 -2 9 -20 -1
-53 -32 -195 -181 -347 -300 -420 -331 -53 -22 -102 -18 -130 11 -21 20 -25
34 -25 85 l0 61 -70 -60 c-105 -91 -176 -101 -219 -30 -19 30 -23 51 -37 172
-9 84 -25 85 -97 6 -71 -77 -147 -191 -212 -317 -51 -100 -80 -127 -111 -101
-23 19 -14 105 24 229 l28 95 -110 -111 c-160 -159 -241 -195 -307 -136 -44
39 -48 101 -19 253 31 165 72 249 114 233 21 -8 21 -12 -13 -113 -31 -93 -61
-223 -61 -266 0 -138 139 -58 362 208 49 59 94 107 99 107 5 0 9 4 9 9 0 21
63 172 81 196 23 29 32 31 49 11z m-6321 -1255 c17 -31 -14 -47 -174 -91 -187
-51 -227 -65 -241 -88 -11 -17 -114 -330 -218 -662 -69 -220 -166 -561 -166
-583 0 -18 5 -19 54 -13 29 3 93 17 141 31 97 28 118 27 113 -7 -2 -19 -17
-28 -83 -50 -44 -14 -136 -36 -205 -47 -69 -11 -158 -30 -198 -41 -78 -22 -92
-20 -92 11 0 23 61 54 129 65 27 4 47 14 56 28 8 12 48 141 89 287 41 147 124
419 185 606 109 332 120 373 102 373 -31 0 -194 -56 -234 -80 -27 -17 -55 -30
-63 -30 -21 0 -29 27 -13 46 27 32 202 106 307 129 23 5 42 19 60 46 29 41 58
50 69 22 4 -10 11 -21 16 -24 10 -7 228 48 302 75 52 19 53 19 64 -3z m11048
-7 c22 -59 -111 -346 -299 -644 -89 -141 -117 -218 -149 -400 -21 -115 -31
-341 -16 -356 4 -4 18 -1 32 6 30 16 313 392 385 512 100 164 220 237 285 172
69 -69 -89 -284 -239 -325 -40 -11 -53 -39 -41 -86 18 -75 54 -89 143 -55 75
29 164 94 298 220 l124 116 0 50 c0 135 138 273 234 236 18 -6 26 -16 24 -27
-3 -16 -22 -24 -79 -37 -37 -8 -94 -70 -109 -118 -10 -37 -9 -64 11 -202 14
-89 29 -160 35 -163 7 -2 99 57 205 131 107 75 202 136 212 136 23 0 33 -26
16 -46 -7 -8 -104 -81 -217 -161 -112 -80 -210 -156 -217 -167 -7 -12 -22 -59
-34 -105 -34 -138 -101 -231 -166 -231 -32 0 -72 36 -80 71 -11 49 42 143 126
227 58 58 72 78 76 110 5 37 -14 212 -23 212 -3 0 -55 -45 -117 -100 -186
-166 -296 -230 -397 -230 -66 0 -104 34 -123 108 l-13 53 -123 -165 c-117
-158 -186 -226 -228 -226 -18 0 -52 35 -63 66 -20 52 -3 337 26 427 3 9 -50
-39 -119 -108 -95 -96 -137 -131 -182 -151 -74 -34 -117 -27 -153 26 -22 32
-24 42 -18 114 3 44 2 75 -3 70 -4 -5 -64 -83 -131 -174 -204 -274 -253 -321
-314 -306 -45 11 -60 64 -53 195 3 64 15 159 27 211 11 52 23 108 27 124 6 27
3 26 -72 -33 -127 -101 -221 -136 -255 -96 -13 15 -9 136 6 210 5 25 -12 11
-109 -90 -124 -130 -168 -162 -210 -151 -34 8 -43 41 -29 109 6 29 9 53 8 54
-5 6 -297 -210 -305 -225 -5 -9 -14 -44 -21 -77 -31 -152 -103 -255 -178 -255
-36 0 -72 43 -72 86 0 58 36 119 123 212 l80 84 -7 97 c-7 113 -15 151 -28
151 -6 0 -27 -14 -48 -30 -57 -46 -126 -73 -164 -66 -38 8 -53 20 -90 68 -16
22 -33 35 -41 32 -30 -12 -97 -117 -174 -269 -86 -173 -113 -215 -140 -215
-42 0 -50 44 -30 156 10 57 49 198 65 239 4 10 -30 -13 -75 -52 -93 -81 -168
-123 -219 -123 -80 0 -97 38 -88 196 4 62 4 114 0 114 -3 0 -49 -41 -101 -90
-99 -95 -180 -154 -225 -165 -38 -9 -68 23 -68 73 0 106 83 314 128 320 35 5
36 -21 2 -88 -38 -75 -74 -210 -61 -223 18 -18 122 66 259 211 181 189 207
189 157 0 -33 -130 -40 -264 -14 -281 31 -20 108 31 244 162 102 99 136 138
157 184 20 44 32 58 45 55 32 -6 26 -52 -22 -164 -56 -130 -105 -278 -105
-314 1 -17 19 10 60 90 72 138 116 200 172 240 52 38 76 35 105 -10 47 -74 54
-80 82 -80 19 0 55 19 102 53 l74 52 8 65 c13 106 81 195 167 221 49 15 90 1
90 -31 0 -15 -9 -21 -41 -26 -46 -8 -93 -37 -122 -75 -33 -46 -37 -101 -15
-243 26 -173 27 -176 40 -176 24 0 347 236 410 301 81 82 116 94 184 60 l44
-21 70 95 c48 66 76 95 90 95 36 0 33 -28 -14 -133 -86 -192 -129 -357 -94
-357 26 0 128 68 217 146 l89 76 61 178 c34 97 61 182 61 188 0 22 -23 23
-159 6 -142 -17 -171 -16 -171 10 0 20 47 32 205 51 72 9 138 18 148 21 11 4
40 50 72 117 78 160 111 209 138 205 33 -5 26 -38 -37 -173 -31 -68 -52 -123
-47 -128 5 -5 112 0 248 13 280 25 328 24 328 -5 0 -25 -21 -29 -353 -59 -219
-19 -255 -25 -271 -42 -38 -39 -188 -482 -231 -683 -12 -53 -22 -139 -23 -195
-2 -96 -1 -101 19 -104 29 -4 68 42 249 294 82 115 164 225 181 244 17 19 40
55 51 80 23 53 44 73 67 64 21 -8 21 -14 -14 -124 -43 -135 -64 -258 -51 -292
14 -37 53 -37 112 1 51 33 179 164 267 272 55 67 67 90 108 210 114 332 233
571 343 687 25 26 69 29 78 6z m-8733 -554 c16 -6 26 -17 26 -30 0 -15 -9 -21
-41 -26 -46 -8 -93 -37 -122 -75 -33 -46 -37 -101 -15 -243 26 -173 27 -176
40 -176 23 0 362 246 377 274 29 53 55 78 74 71 22 -9 22 -12 -12 -119 -43
-134 -66 -264 -52 -298 13 -33 45 -37 94 -12 43 23 164 140 251 245 131 157
214 214 231 158 7 -21 -7 -39 -31 -39 -20 0 -76 -71 -102 -129 -33 -75 -41
-174 -17 -201 35 -39 95 -15 121 46 19 46 18 78 -6 124 -24 47 -26 76 -4 84 9
3 46 6 82 6 51 0 95 10 182 39 63 21 118 44 122 52 4 8 21 49 39 92 38 94 57
121 83 111 25 -10 21 -27 -73 -268 -45 -114 -81 -215 -79 -222 2 -8 31 27 65
78 144 217 262 300 302 211 7 -15 17 -65 22 -112 16 -137 26 -159 72 -147 32
8 218 180 268 249 94 127 231 166 255 71 8 -31 -17 -99 -57 -153 -38 -53 -140
-128 -184 -137 -19 -3 -40 -12 -46 -20 -17 -21 -4 -116 18 -131 64 -48 214 35
417 228 l119 114 2 57 c5 101 79 203 169 230 31 10 43 9 65 -3 40 -22 33 -42
-20 -55 -63 -16 -84 -28 -115 -70 -36 -47 -41 -111 -20 -245 9 -57 19 -121 22
-142 5 -31 10 -38 24 -34 10 2 101 64 203 136 102 72 193 131 202 131 19 0 29
-24 18 -44 -4 -8 -100 -80 -213 -161 -113 -80 -211 -154 -218 -164 -7 -10 -22
-56 -33 -101 -45 -189 -150 -290 -224 -215 -55 54 -17 153 106 278 l69 70 0
76 c-1 75 -12 156 -23 168 -4 3 -47 -33 -98 -81 -104 -99 -207 -176 -294 -217
-76 -37 -158 -40 -199 -8 -35 27 -60 115 -51 177 l7 47 -34 -31 c-56 -52 -89
-74 -129 -84 -80 -22 -121 30 -139 178 -11 91 -14 102 -35 102 -37 0 -206
-234 -289 -399 -39 -77 -73 -104 -101 -81 -8 7 -15 27 -15 45 0 43 41 199 79
304 24 63 28 82 16 77 -39 -15 -184 -55 -217 -61 l-38 -6 0 -72 c0 -105 -44
-172 -126 -196 -37 -10 -98 8 -120 36 -21 27 -37 93 -30 126 5 26 -5 19 -88
-61 -155 -148 -247 -176 -303 -93 -27 40 -29 91 -9 196 8 39 12 72 10 74 -6 6
-343 -239 -353 -257 -5 -9 -14 -44 -21 -77 -31 -152 -103 -255 -178 -255 -36
0 -72 43 -72 86 0 58 36 119 123 212 l80 84 -7 97 c-7 113 -15 151 -28 151 -6
0 -27 -14 -48 -30 -57 -46 -126 -73 -164 -66 -38 8 -53 20 -90 68 -16 22 -33
35 -41 32 -30 -12 -97 -117 -174 -269 -86 -174 -113 -215 -141 -215 -34 0 -43
26 -36 98 6 69 44 226 72 297 l16 40 -29 -26 c-218 -198 -335 -269 -442 -269
-38 0 -56 6 -79 25 -57 48 -68 179 -23 280 12 27 20 49 19 51 -7 6 -207 -43
-221 -54 -9 -8 -23 -37 -33 -65 -24 -76 -77 -173 -136 -251 -81 -107 -143
-128 -180 -63 -17 30 -14 182 6 281 9 44 15 81 13 82 -1 2 -40 -30 -86 -71
-98 -85 -154 -109 -196 -81 -42 28 -57 63 -71 169 -7 56 -14 103 -14 105 0 1
-6 2 -13 2 -40 0 -204 -213 -277 -360 -62 -125 -108 -162 -131 -104 -18 50 18
187 126 474 36 95 75 188 86 207 22 36 51 41 57 10 2 -9 -33 -111 -77 -225
-81 -212 -102 -275 -84 -257 6 6 39 52 74 104 73 109 176 217 214 227 62 15
87 -25 100 -161 9 -86 28 -135 52 -135 27 0 61 25 175 132 87 80 108 106 125
150 15 39 26 54 42 56 35 5 35 -21 -3 -135 -19 -59 -42 -146 -51 -192 -18
-100 -20 -227 -3 -237 27 -17 140 153 188 282 46 122 50 125 252 164 l107 21
59 59 c80 79 152 99 197 54 69 -69 -89 -284 -239 -325 -43 -12 -54 -42 -37
-99 15 -51 33 -64 82 -57 89 12 195 84 391 267 90 83 119 116 140 163 20 44
32 58 45 55 32 -6 26 -52 -22 -164 -56 -130 -105 -278 -105 -314 1 -17 19 10
60 90 72 138 116 200 172 240 52 38 76 35 105 -10 46 -72 54 -80 79 -80 32 0
55 12 127 67 49 38 57 49 57 77 0 93 66 201 144 237 48 22 56 22 90 9z m404
-42 c27 -27 1 -78 -39 -78 -27 0 -45 41 -30 69 13 23 50 28 69 9z m7550 0 c27
-27 1 -78 -39 -78 -27 0 -45 41 -30 69 13 23 50 28 69 9z m-12287 -2494 c415
-71 729 -334 853 -715 65 -202 74 -510 21 -717 -85 -331 -269 -571 -543 -711
l-43 -22 33 -47 c57 -81 209 -227 268 -258 45 -23 68 -28 125 -28 94 0 168 38
278 144 l82 78 38 -19 c20 -11 37 -22 37 -25 0 -12 -66 -134 -100 -184 -52
-77 -157 -172 -227 -206 -52 -26 -69 -29 -153 -29 -86 0 -101 3 -157 31 -121
62 -193 141 -330 366 -40 65 -73 108 -82 108 -9 0 -52 -7 -96 -16 -103 -20
-287 -19 -393 1 -292 56 -543 222 -708 467 -244 364 -241 952 6 1319 56 82
176 207 261 270 223 165 548 241 830 193z m9979 -1029 l0 -795 90 0 c88 0 91
-1 100 -26 6 -14 10 -27 10 -30 0 -2 -133 -4 -295 -4 l-295 0 0 29 c0 27 2 29
57 36 78 10 100 19 118 54 13 26 15 120 15 751 l0 720 -95 0 -95 0 0 30 0 30
195 0 195 0 0 -795z m-2829 720 c42 -22 69 -71 69 -125 0 -107 -94 -168 -195
-126 -66 28 -93 114 -61 191 28 66 119 95 187 60z m-3606 -35 c97 -14 225 -56
291 -96 31 -19 58 -34 60 -34 2 0 4 19 4 43 0 50 7 63 41 76 l26 9 7 -81 c3
-45 6 -151 6 -234 l0 -153 -31 0 c-25 0 -32 6 -45 38 -93 229 -216 337 -416
362 -264 33 -479 -125 -552 -405 -9 -33 -21 -112 -27 -175 -7 -63 -13 -116
-15 -118 -2 -3 -234 96 -243 104 -2 1 4 38 14 81 90 412 442 645 880 583z
m4335 -315 l0 -145 195 0 195 0 0 -35 0 -35 -196 0 -195 0 3 -422 c3 -394 4
-426 22 -462 26 -51 70 -78 119 -72 60 7 102 47 145 136 35 76 38 79 71 80
l34 0 -7 -41 c-17 -108 -100 -215 -188 -245 -103 -34 -245 -1 -306 71 -14 16
-37 55 -51 85 l-26 55 -3 408 -3 407 -90 0 -89 0 0 35 0 35 90 0 89 0 3 122 3
121 80 23 c44 12 86 23 93 23 9 1 12 -34 12 -144z m-3055 -137 c92 -23 170
-81 207 -153 44 -84 48 -124 48 -460 0 -338 5 -385 44 -410 49 -32 97 21 114
125 7 43 9 45 44 48 l37 3 -5 -38 c-18 -126 -65 -194 -151 -219 -127 -37 -221
18 -263 153 l-17 57 -16 -31 c-23 -43 -109 -117 -170 -147 -63 -31 -173 -49
-236 -40 -113 16 -192 65 -237 146 -26 47 -29 63 -29 143 0 74 4 97 22 131 46
86 140 146 287 184 81 21 242 40 333 40 l55 0 -4 118 c-5 130 -22 185 -74 234
-78 73 -223 86 -297 28 -14 -11 -37 -51 -53 -91 -35 -89 -72 -123 -123 -115
-46 7 -81 46 -81 89 0 42 36 103 80 139 91 73 330 105 485 66z m1425 11 c235
-37 370 -232 370 -533 0 -67 -6 -136 -15 -171 -53 -206 -210 -372 -395 -414
-124 -29 -282 6 -388 86 -18 14 -35 23 -37 22 -2 -2 -5 -117 -7 -256 l-3 -252
110 -3 c105 -3 110 -4 122 -28 7 -14 9 -28 4 -33 -4 -4 -144 -6 -312 -5 l-304
3 -3 33 c-3 32 -3 32 40 33 69 0 111 19 130 59 17 32 18 87 18 702 l0 667 -92
3 -93 3 -3 33 -3 32 184 0 185 0 7 -131 8 -131 31 58 c17 33 53 82 81 110 74
75 149 107 290 123 6 0 39 -4 75 -10z m2780 -19 c131 -39 210 -139 230 -290 5
-41 10 -207 10 -368 0 -310 6 -353 47 -364 50 -13 93 43 109 140 6 40 8 42 41
42 l35 0 -7 -42 c-14 -92 -27 -123 -69 -164 -110 -111 -298 -62 -336 88 -19
73 -19 73 -50 26 -120 -181 -420 -233 -573 -98 -64 57 -89 115 -89 211 -1 223
173 331 575 355 l117 7 0 111 c-1 91 -5 121 -23 166 -28 69 -84 114 -163 130
-124 26 -193 -12 -240 -131 -15 -39 -39 -79 -52 -90 -47 -36 -115 -18 -138 36
-20 48 -5 99 43 148 64 66 139 95 283 107 106 9 167 4 250 -20z m-1832 -512
l2 -508 79 0 c79 0 91 -5 104 -42 6 -17 -12 -18 -288 -18 l-295 0 0 29 c0 28
2 29 63 36 34 4 73 14 85 22 50 31 52 51 52 503 l0 420 -100 0 -100 0 0 35 0
35 198 -2 197 -3 3 -507z m-4302 -8 c16 -6 24 -26 37 -87 10 -44 35 -115 56
-159 87 -180 220 -264 416 -264 133 1 236 32 321 96 17 13 35 24 41 24 6 0 38
-13 73 -28 l62 -29 -43 -25 c-71 -41 -178 -79 -279 -100 -171 -36 -393 -5
-541 74 -179 95 -317 275 -369 482 -34 136 -38 133 93 75 61 -28 121 -54 133
-59z m1092 -187 l3 -92 -48 21 c-26 11 -52 24 -57 28 -7 7 23 103 40 132 3 5
18 8 32 6 27 -3 27 -4 30 -95z m-10 -296 c6 -5 12 -27 12 -48 0 -35 -3 -39
-24 -39 -32 0 -56 35 -56 82 0 37 0 37 28 26 15 -7 33 -16 40 -21z m495 -828
c30 -8 37 -14 37 -36 0 -20 -4 -24 -17 -18 -62 25 -73 26 -100 13 -23 -11 -28
-20 -28 -48 0 -33 4 -37 70 -71 57 -29 72 -43 83 -71 19 -50 -4 -103 -52 -123
-45 -19 -66 -19 -116 1 -31 13 -40 21 -40 40 0 24 1 24 31 9 17 -9 48 -15 72
-13 33 2 44 8 57 30 20 37 8 56 -60 90 -90 44 -117 90 -89 152 12 26 61 55 94
56 11 0 37 -5 58 -11z m884 -4 c73 -31 113 -92 113 -175 0 -160 -179 -245
-301 -143 -106 90 -82 255 46 314 49 23 94 24 142 4z m556 -4 c19 -7 27 -18
27 -35 0 -24 -1 -24 -27 -10 -37 18 -106 18 -144 -2 -32 -16 -68 -81 -69 -121
0 -42 31 -102 65 -123 39 -24 104 -26 145 -5 29 15 30 15 30 -9 0 -19 -9 -27
-40 -40 -47 -19 -62 -19 -113 -5 -82 22 -131 95 -129 191 3 130 129 209 255
159z m-973 -11 c0 -17 -7 -20 -50 -20 l-50 0 0 -160 0 -160 -25 0 -25 0 0 160
0 160 -50 0 c-43 0 -50 3 -50 20 0 19 7 20 125 20 118 0 125 -1 125 -20z
m1250 -57 l1 -78 72 79 c58 63 77 77 97 75 22 -4 20 -9 -48 -84 -40 -44 -72
-84 -72 -88 0 -5 36 -48 80 -95 79 -85 80 -87 53 -90 -23 -3 -39 9 -105 80
l-77 83 -1 -82 c0 -82 0 -83 -25 -83 l-25 0 0 180 0 180 25 0 c24 0 25 -2 25
-77z m793 -61 c33 -73 63 -130 66 -126 3 3 32 63 63 132 33 74 63 128 72 130
9 2 16 0 16 -4 0 -6 36 -221 55 -326 4 -24 1 -28 -20 -28 -28 0 -29 3 -50 130
-9 52 -18 96 -19 97 -1 2 -26 -49 -56 -112 -29 -63 -58 -115 -64 -115 -7 0
-33 48 -60 108 -27 59 -52 111 -56 115 -3 4 -15 -43 -26 -105 -17 -103 -21
-113 -41 -116 -29 -4 -29 -12 3 191 22 135 30 167 42 165 8 -2 41 -61 75 -136z
m636 111 c30 -65 141 -323 141 -328 0 -3 -12 -5 -26 -5 -20 0 -29 9 -45 45
l-20 45 -70 0 -70 0 -20 -45 c-17 -38 -24 -45 -49 -45 l-28 0 60 138 c33 75
68 156 78 180 22 49 32 52 49 15z m515 -2 c51 -48 44 -124 -13 -159 l-30 -18
50 -77 49 -77 -28 0 c-23 0 -34 12 -74 75 -34 53 -53 75 -68 75 -18 0 -20 -6
-20 -75 0 -73 -1 -75 -25 -75 l-25 0 0 181 0 181 79 -3 c67 -4 83 -8 105 -28z
m286 -51 l0 -81 71 81 c59 66 77 80 101 80 29 0 28 -2 -47 -85 l-78 -85 19
-23 c10 -12 48 -53 84 -92 l65 -70 -30 -3 c-23 -3 -35 3 -54 25 -13 15 -48 54
-77 86 l-54 58 0 -85 c0 -85 0 -86 -25 -86 l-25 0 0 180 0 180 25 0 c25 0 25
-1 25 -80z m600 60 c0 -18 -7 -20 -75 -20 l-75 0 0 -55 0 -55 65 0 c63 0 65
-1 65 -25 0 -24 -2 -25 -65 -25 l-65 0 0 -60 0 -60 75 0 c68 0 75 -2 75 -20 0
-19 -7 -20 -100 -20 l-100 0 0 180 0 180 100 0 c93 0 100 -1 100 -20z m410 0
c0 -17 -7 -20 -50 -20 l-50 0 0 -160 0 -160 -25 0 -25 0 0 160 0 160 -50 0
c-43 0 -50 3 -50 20 0 19 7 20 125 20 118 0 125 -1 125 -20z m-3425 -634 c24
-10 35 -22 35 -35 0 -24 -4 -25 -32 -10 -30 16 -106 13 -134 -6 -87 -57 -83
-207 6 -252 34 -17 112 -16 136 2 28 21 33 18 25 -12 -5 -21 -17 -31 -47 -41
-151 -51 -285 116 -213 265 41 85 140 124 224 89z m-494 -179 l77 -177 -28 0
c-23 0 -30 7 -44 45 l-18 45 -74 0 -75 0 -19 -45 c-16 -36 -24 -45 -44 -45
-20 0 -24 4 -18 18 58 145 149 341 156 339 5 -2 44 -83 87 -180z m960 0 l77
-177 -28 0 c-23 0 -30 7 -44 45 l-18 45 -74 0 -75 0 -19 -45 c-16 -36 -24 -45
-44 -45 -20 0 -24 4 -18 18 58 145 149 341 156 339 5 -2 44 -83 87 -180z m462
154 c44 -27 77 -92 77 -151 0 -59 -33 -124 -77 -151 -27 -17 -57 -24 -114 -27
l-79 -5 0 183 0 183 79 -5 c57 -3 87 -10 114 -27z m467 9 c0 -17 -8 -19 -72
-22 l-73 -3 -3 -52 -3 -53 70 0 c64 0 71 -2 71 -20 0 -17 -8 -19 -67 -22 l-68
-3 0 -60 0 -60 73 -3 c64 -3 72 -5 72 -22 0 -18 -7 -20 -95 -20 l-95 0 0 180
0 180 95 0 c88 0 95 -2 95 -20z m324 -100 c28 -63 56 -126 62 -139 9 -21 16
-10 69 114 53 122 76 158 90 143 3 -2 16 -71 30 -154 13 -82 27 -161 30 -176
4 -24 1 -28 -20 -28 -28 0 -29 3 -50 130 -9 52 -18 96 -19 97 -2 2 -27 -49
-56 -112 -29 -63 -58 -115 -65 -115 -6 0 -33 50 -60 111 -27 61 -52 112 -56
114 -3 3 -15 -46 -25 -108 -17 -102 -21 -112 -41 -115 -14 -2 -23 2 -23 10 0
7 12 89 27 181 21 131 31 167 42 165 8 -2 37 -55 65 -118z m555 49 l44 -72 45
72 c38 62 48 71 74 71 21 0 27 -4 22 -12 -4 -7 -32 -50 -61 -96 l-53 -83 0
-84 c0 -84 0 -85 -25 -85 -25 0 -25 1 -25 82 l0 81 -60 94 c-33 51 -60 95 -60
98 0 3 12 5 28 5 23 0 34 -11 71 -71z"/>
<path d="M11294 9518 c-16 -13 -37 -32 -47 -43 -26 -31 -107 -201 -107 -227 0
-20 5 -18 38 21 66 78 202 256 202 263 0 17 -59 7 -86 -14z"/>
<path d="M10616 9410 c-64 -60 -147 -230 -112 -230 14 0 129 117 190 193 32
39 36 50 26 62 -22 26 -58 17 -104 -25z"/>
<path d="M13171 9539 c-106 -61 -184 -168 -211 -290 -15 -66 -8 -109 18 -109
43 0 220 125 340 239 48 47 52 54 52 96 0 97 -91 126 -199 64z"/>
<path d="M13177 8493 c-43 -64 -46 -72 -34 -96 6 -15 15 -27 18 -27 10 0 72
167 67 181 -2 7 -25 -19 -51 -58z"/>
<path d="M13077 8306 c-24 -55 -48 -138 -41 -145 8 -8 22 18 45 86 24 75 22
119 -4 59z"/>
<path d="M12910 7383 c-149 -115 -357 -317 -417 -403 -55 -82 -56 -130 0 -130
108 0 305 207 428 452 55 110 53 130 -11 81z"/>
<path d="M17022 8238 c-39 -49 -180 -353 -169 -364 7 -8 197 350 197 371 0 10
-18 5 -28 -7z"/>
<path d="M17265 7608 c-41 -22 -87 -75 -116 -132 -16 -32 -27 -61 -24 -64 18
-18 160 104 182 156 20 48 3 65 -42 40z"/>
<path d="M15209 7523 c-68 -76 -130 -213 -95 -213 15 0 121 108 186 191 45 57
42 79 -10 79 -21 0 -41 -14 -81 -57z"/>
<path d="M14591 7033 c-59 -72 -76 -139 -34 -131 23 4 72 85 80 131 7 48 -7
48 -46 0z"/>
<path d="M17618 7043 c-55 -59 -82 -123 -57 -138 24 -15 82 66 95 134 8 38 -4
39 -38 4z"/>
<path d="M7195 7602 c-58 -36 -152 -169 -132 -188 19 -20 161 99 184 154 22
53 2 66 -52 34z"/>
<path d="M10425 7604 c-16 -8 -38 -23 -49 -32 -18 -17 -96 -142 -96 -155 0
-32 134 61 174 120 28 40 34 83 14 83 -7 0 -26 -7 -43 -16z"/>
<path d="M10783 7037 c-48 -50 -75 -99 -67 -122 10 -25 36 -13 65 30 25 36 55
122 46 131 -2 2 -22 -15 -44 -39z"/>
<path d="M8121 7033 c-59 -72 -76 -139 -34 -131 23 4 72 85 80 131 7 48 -7 48
-46 0z"/>
<path d="M3701 5175 c-185 -41 -336 -165 -426 -350 -87 -178 -119 -353 -119
-655 0 -222 9 -314 45 -460 43 -171 104 -292 199 -393 l58 -61 28 34 c57 71
128 131 192 162 60 30 76 33 153 33 80 0 91 -2 170 -42 64 -32 107 -63 174
-127 l89 -84 62 60 c146 140 224 328 260 623 20 162 14 484 -11 619 -67 363
-226 566 -497 637 -88 23 -280 25 -377 4z"/>
<path d="M3736 3345 c-56 -21 -186 -124 -186 -146 0 -12 142 -58 210 -69 91
-14 183 -12 264 5 38 8 71 17 74 19 16 16 -110 146 -170 177 -53 27 -141 33
-192 14z"/>
<path d="M8762 3939 c-200 -19 -292 -80 -307 -202 -4 -29 -1 -74 5 -102 24
-108 82 -155 192 -155 113 0 210 66 266 179 24 49 27 70 31 174 l3 117 -53 -1
c-30 -1 -91 -5 -137 -10z"/>
<path d="M10073 4383 c-88 -30 -174 -135 -209 -252 -22 -76 -34 -231 -24 -328
26 -248 142 -378 322 -359 75 7 116 25 168 72 89 80 130 211 130 414 0 198
-37 327 -115 402 -67 64 -177 85 -272 51z"/>
<path d="M12949 3940 c-220 -21 -309 -89 -309 -236 0 -117 54 -204 135 -220
53 -10 135 0 180 21 62 30 129 103 154 168 17 46 21 80 21 167 l0 110 -52 -1
c-29 -1 -87 -5 -129 -9z"/>
<path d="M9306 2605 c-47 -17 -66 -33 -83 -72 -42 -102 22 -203 129 -203 60 0
112 41 129 103 29 108 -72 207 -175 172z"/>
<path d="M11632 2487 c-12 -29 -22 -56 -22 -60 0 -4 23 -7 50 -7 28 0 50 2 50
5 0 8 -49 115 -53 115 -2 0 -13 -24 -25 -53z"/>
<path d="M12060 2544 l0 -67 48 7 c52 7 72 25 72 67 0 36 -33 59 -82 59 l-38
0 0 -66z"/>
<path d="M9472 1880 c-5 -14 -17 -42 -26 -64 -9 -21 -16 -40 -16 -42 0 -2 25
-4 55 -4 61 0 60 -7 17 90 -19 44 -20 45 -30 20z"/>
<path d="M10432 1880 c-5 -14 -17 -42 -26 -64 -9 -21 -16 -40 -16 -42 0 -2 25
-4 55 -4 61 0 60 -7 17 90 -19 44 -20 45 -30 20z"/>
<path d="M10845 1948 c-3 -8 -4 -70 -3 -139 l3 -124 49 3 c62 4 82 15 106 55
37 60 17 167 -37 195 -10 6 -39 13 -65 17 -37 6 -49 4 -53 -7z"/>
<path d="M18770 13300 c0 -966 2 -1100 15 -1100 8 0 15 -4 15 -9 0 -5 3 -16 6
-24 3 -10 -2 -18 -15 -22 l-21 -6 0 -790 0 -789 25 0 c14 0 28 -7 31 -15 4 -9
19 -15 39 -15 52 0 65 9 65 44 0 36 -24 56 -80 66 -30 6 -23 8 43 14 l78 8 60
-41 c33 -22 64 -41 69 -41 5 0 25 -16 46 -35 30 -29 35 -37 24 -50 -10 -12
-40 -15 -150 -15 -140 0 -200 11 -200 36 0 8 -4 14 -9 14 -5 0 -16 3 -25 6
-14 5 -16 -8 -16 -113 l0 -120 41 -12 c44 -13 54 -28 45 -67 -6 -24 -10 -26
-47 -21 l-39 5 0 -83 0 -82 63 -31 c56 -29 59 -32 31 -32 -17 0 -46 -3 -63 -6
l-31 -6 0 -172 c0 -111 4 -176 11 -183 8 -8 8 -13 0 -17 -8 -5 -11 -887 -10
-3114 1 -2662 3 -3102 15 -3075 7 17 30 48 51 68 35 34 38 35 45 15 6 -15 -1
-37 -24 -77 -27 -48 -31 -65 -30 -120 2 -65 -11 -107 -42 -132 -14 -12 -16
-47 -16 -242 0 -126 2 -229 5 -229 3 0 48 29 101 65 53 36 99 65 102 65 4 0
36 11 72 24 36 14 76 27 90 30 14 3 43 22 65 42 62 57 106 82 150 86 39 3 40
2 37 -26 -2 -17 -11 -41 -21 -55 -9 -14 -26 -43 -36 -64 -11 -20 -37 -56 -57
-80 -21 -23 -38 -45 -38 -49 0 -3 -11 -20 -25 -36 -31 -37 -66 -161 -56 -198
17 -63 114 -89 189 -50 17 9 69 21 115 27 79 10 110 22 151 60 38 36 109 36
121 0 3 -9 13 -26 23 -37 36 -38 34 -64 -11 -151 -28 -56 -65 -106 -112 -155
-39 -40 -79 -86 -90 -103 -21 -35 -97 -103 -133 -123 -32 -16 -76 -17 -122 -3
-26 8 -44 8 -75 -3 -80 -28 -122 -38 -140 -34 -29 5 -65 65 -65 108 0 53 -23
70 -94 70 -60 0 -123 20 -131 42 -9 23 23 99 52 126 24 22 27 32 26 82 -1 73
-24 125 -62 145 l-31 16 0 -1256 0 -1255 3415 0 3415 0 -1 6598 c-1 3628 -5
6579 -8 6557 -7 -40 -7 -40 -15 22 -4 34 -4 72 0 85 l8 23 6 -25 c3 -14 7 237
8 558 l3 582 -3416 0 -3415 0 0 -1100z m472 63 c63 -43 82 -53 99 -53 9 0 24
-9 33 -19 10 -11 32 -23 50 -27 17 -4 41 -17 53 -30 12 -13 29 -24 38 -24 29
0 114 -56 154 -101 44 -50 101 -143 101 -164 0 -7 -9 -17 -21 -20 -26 -8 -80
18 -127 62 -19 17 -46 34 -61 38 -38 10 -51 24 -51 55 0 33 -32 76 -63 86 -12
4 -41 22 -64 41 -35 29 -45 33 -62 23 -12 -6 -21 -15 -21 -21 0 -13 -31 13
-86 73 -25 27 -39 108 -18 108 2 0 23 -12 46 -27z m-267 -73 c3 -5 1 -10 -4
-10 -6 0 -11 5 -11 10 0 6 2 10 4 10 3 0 8 -4 11 -10z m140 -120 c30 -36 55
-71 55 -77 0 -7 9 -18 20 -25 26 -16 26 -28 0 -28 -26 0 -149 127 -157 162 -3
15 -12 29 -20 32 -8 3 -11 10 -8 16 11 18 52 -12 110 -80z m1933 -34 c10 -20
11 -33 2 -59 -9 -23 -9 -59 -3 -127 5 -52 8 -103 5 -113 -4 -17 -6 -16 -19 2
-7 11 -13 33 -11 48 2 22 -1 28 -17 28 -17 0 -19 -6 -17 -41 4 -47 -18 -80
-60 -90 -32 -7 -43 8 -118 164 -39 80 -50 113 -50 151 0 55 7 61 74 61 23 0
47 5 54 12 9 9 17 7 35 -10 l23 -22 24 25 c21 22 26 24 44 12 12 -8 27 -26 34
-41z m215 27 c73 -81 64 -76 120 -69 l52 7 38 -79 c21 -46 37 -94 37 -115 0
-20 5 -39 10 -42 12 -7 70 -131 70 -148 0 -6 16 -28 36 -48 30 -31 38 -47 42
-88 3 -35 1 -51 -7 -51 -6 0 -14 7 -17 15 -4 8 -12 15 -20 15 -7 0 -19 19 -25
43 -7 23 -17 47 -24 52 -6 6 -21 24 -33 42 -12 17 -31 34 -41 38 -10 3 -22 16
-25 28 -6 22 -6 22 -31 -6 -23 -26 -26 -27 -49 -12 -21 14 -24 14 -30 0 -10
-26 -7 -72 6 -100 6 -14 9 -28 6 -31 -9 -8 -80 24 -105 48 -29 27 -72 161 -77
240 -2 34 -4 71 -5 81 -1 11 -9 17 -26 17 -19 0 -25 5 -25 21 0 12 11 34 25
51 14 16 25 35 25 42 0 15 38 66 49 66 4 0 15 -8 24 -17z m-1908 -21 c-6 -7
-65 9 -65 17 0 5 15 3 34 -3 19 -6 33 -12 31 -14z m2568 -76 c115 -17 114 -17
137 11 13 16 24 23 28 17 4 -6 17 -26 30 -46 33 -52 51 -56 84 -16 l27 33 15
-36 c8 -19 18 -47 21 -61 4 -14 18 -31 32 -37 35 -16 52 8 53 73 0 71 48 141
82 120 6 -4 25 -7 42 -6 34 1 66 -22 66 -48 0 -9 12 -32 26 -51 23 -31 25 -40
19 -99 -8 -90 -19 -112 -68 -135 -38 -18 -43 -25 -53 -70 -7 -34 -12 -44 -17
-32 -3 9 -12 17 -20 17 -7 0 -24 11 -37 25 l-23 24 -20 -27 c-12 -15 -22 -29
-24 -31 -2 -3 -13 5 -26 17 -34 32 -61 27 -95 -15 l-29 -37 -23 26 -22 26 -23
-26 -23 -27 -21 27 c-19 24 -25 26 -51 16 -41 -14 -45 -24 -24 -69 12 -28 14
-43 7 -50 -8 -8 -13 -5 -18 10 -3 12 -12 21 -20 21 -7 0 -16 14 -19 30 -3 17
-9 43 -12 60 -3 16 -12 33 -20 38 -7 4 -25 22 -38 41 -24 32 -24 32 -32 9 -4
-13 -10 -47 -13 -77 -3 -30 -11 -56 -17 -58 -6 -2 -17 24 -25 59 l-14 63 -53
3 c-52 3 -54 4 -71 45 -19 44 -18 100 2 125 6 7 23 20 39 28 27 14 29 13 68
-26 25 -25 40 -49 40 -65 0 -14 6 -25 14 -25 10 0 15 28 19 123 3 67 9 132 13
145 6 22 8 21 31 -17 18 -31 31 -41 56 -45z m-2638 -56 c16 -7 13 -9 -17 -9
-21 -1 -38 4 -38 9 0 12 27 12 55 0z m3714 -78 c11 -21 -11 -92 -32 -104 -8
-4 -18 -20 -22 -35 -11 -43 -25 -8 -25 64 0 53 3 64 22 77 29 21 45 20 57 -2z
m-1971 -488 c23 -32 32 -55 32 -84 0 -46 -12 -56 -50 -40 -30 13 -40 40 -40
115 0 69 12 71 58 9z m-1973 -40 c13 -5 14 -8 3 -15 -7 -5 -22 -9 -32 -9 -11
0 -30 -10 -42 -21 -25 -23 -107 -38 -118 -21 -7 11 62 51 109 62 40 10 60 11
80 4z m1925 -93 c0 -21 -26 -36 -36 -20 -9 15 3 39 21 39 8 0 15 -9 15 -19z
m120 -49 c0 -13 -25 -25 -77 -37 -30 -6 -33 -4 -33 17 0 19 9 26 48 38 47 15
62 11 62 -18z m-359 -52 c10 0 19 -4 19 -10 0 -18 -45 7 -46 26 -1 16 0 16 3
2 3 -10 13 -18 24 -18z m-1676 -169 c-3 -11 -19 -30 -34 -41 -16 -11 -45 -36
-65 -56 -23 -23 -43 -34 -56 -32 -11 2 -21 6 -20 11 0 4 0 18 0 31 0 16 16 36
55 67 76 61 137 71 120 20z m1746 2 c9 -17 23 -43 32 -57 10 -14 17 -39 17
-56 0 -26 -4 -30 -26 -30 -27 0 -59 19 -130 78 l-41 34 36 34 c47 45 89 44
112 -3z m-1536 -54 c0 -17 -9 -28 -30 -38 -16 -8 -31 -18 -33 -23 -2 -4 -10
-8 -18 -8 -19 0 -3 32 34 73 30 32 47 30 47 -4z m-113 -94 c-2 -14 -6 -25 -8
-25 -2 0 -4 11 -4 25 0 14 4 25 9 25 4 0 6 -11 3 -25z m1274 -81 c22 -15 40
-29 42 -30 3 -2 14 -116 16 -174 1 -40 -2 -45 -21 -48 -18 -3 -23 2 -23 17 0
12 -5 21 -11 21 -15 0 -39 64 -39 108 0 30 -8 47 -35 78 -19 21 -35 46 -35 55
0 24 57 10 106 -27z m117 9 c-7 -2 -19 -2 -25 0 -7 3 -2 5 12 5 14 0 19 -2 13
-5z m72 -44 c4 -6 5 -12 3 -14 -7 -7 -48 7 -48 16 0 13 37 11 45 -2z m-312
-154 c87 -36 146 -93 121 -117 -6 -7 -117 35 -151 57 -12 9 -23 23 -23 33 0
10 -5 23 -12 30 -17 17 20 16 65 -3z m-356 -31 c29 -12 43 -23 43 -35 0 -11 6
-19 14 -19 9 0 12 8 8 25 -10 53 56 39 140 -31 44 -37 67 -79 51 -95 -15 -15
-141 2 -165 22 -11 11 -26 19 -32 19 -24 0 -116 56 -125 77 -6 13 -15 23 -21
23 -5 0 -10 7 -10 15 0 20 43 19 97 -1z m837 -40 c9 -3 16 -12 16 -19 0 -17
-52 -5 -58 13 -4 13 17 16 42 6z m-953 -83 c35 -36 37 -51 5 -51 -44 0 -76 18
-77 42 0 13 -3 17 -6 11 -2 -7 -11 -13 -18 -13 -7 0 -25 -6 -41 -14 -30 -16
-47 -11 -96 30 -38 31 -23 35 100 29 98 -5 105 -6 133 -34z m162 -86 c28 -27
36 -55 15 -55 -14 0 -88 62 -88 73 0 17 48 5 73 -18z m398 -47 c8 -15 8 -27 0
-44 -10 -23 -11 -23 -41 -6 -30 16 -48 51 -36 70 9 15 66 1 77 -20z m-621 -22
c0 -7 11 -25 24 -39 13 -14 27 -41 31 -59 4 -18 11 -38 16 -44 6 -8 2 -14 -13
-17 -15 -4 -26 -1 -32 10 -13 25 -74 83 -85 83 -12 0 -51 40 -51 52 0 4 10 8
23 8 12 0 33 6 47 14 27 14 40 12 40 -8z m1315 -106 c8 -13 -15 -13 -35 0 -12
8 -11 10 7 10 12 0 25 -4 28 -10z m-940 -90 c3 -5 -1 -10 -10 -10 -9 0 -13 5
-10 10 3 6 8 10 10 10 2 0 7 -4 10 -10z m-411 -52 c10 -15 21 -28 27 -28 5 0
9 -7 9 -15 0 -21 -39 -19 -75 5 -22 14 -39 18 -70 13 -31 -4 -44 -1 -54 11
-17 21 -12 26 47 45 57 20 92 10 116 -31z m-325 13 c26 -14 111 -98 111 -110
0 -34 -209 -17 -260 20 -41 31 -40 59 3 59 17 1 48 9 67 19 41 22 55 24 79 12z
m827 -12 c3 -5 -8 -9 -25 -9 -28 0 -46 11 -35 22 7 7 53 -3 60 -13z m-168 -24
l23 -24 -21 -11 c-25 -13 -50 2 -50 30 0 36 17 38 48 5z m552 10 c0 -9 9 -15
23 -15 31 0 43 -10 51 -43 6 -26 5 -27 -16 -15 -13 7 -27 19 -31 26 -4 6 -15
12 -22 12 -8 0 -15 4 -15 9 0 5 -3 16 -6 25 -3 9 -1 16 5 16 6 0 11 -7 11 -15z
m-193 -41 c-9 -9 -28 6 -21 18 4 6 10 6 17 -1 6 -6 8 -13 4 -17z m-674 -91
c-7 -2 -19 -2 -25 0 -7 3 -2 5 12 5 14 0 19 -2 13 -5z m-562 -111 c30 -16 72
-39 94 -52 22 -13 54 -31 71 -40 17 -9 44 -26 59 -38 14 -12 35 -24 46 -27 10
-4 19 -14 19 -24 0 -17 -3 -18 -57 -4 -32 8 -87 21 -123 29 -36 9 -76 22 -88
30 -13 9 -46 22 -73 30 -51 15 -56 22 -39 54 7 14 6 23 -5 34 -44 44 17 49 96
8z m-166 -22 c4 -6 -5 -10 -19 -10 -14 0 -26 5 -26 10 0 6 9 10 19 10 11 0 23
-4 26 -10z m-130 -396 c38 -35 19 -53 -21 -19 -16 14 -35 25 -41 25 -7 0 -13
5 -13 10 0 20 48 10 75 -16z m749 -173 l27 -50 -23 -12 c-29 -16 -83 -13 -117
7 -122 69 -116 77 75 103 6 0 23 -21 38 -48z m-280 -52 c-9 -15 -44 -10 -51 7
-9 24 18 36 39 17 10 -9 15 -20 12 -24z m-316 -51 c5 -27 -35 -32 -95 -12 -64
22 -50 34 37 31 42 -2 56 -6 58 -19z m142 -82 c0 -11 -43 -76 -50 -76 -12 0
-17 19 -12 52 4 23 9 28 33 28 16 0 29 -2 29 -4z m376 -19 c29 -25 26 -47 -6
-47 -10 0 -32 11 -48 25 -17 14 -35 25 -40 25 -6 0 -14 5 -17 10 -4 6 11 10
39 10 33 0 52 -6 72 -23z m1529 -47 c-5 -8 -11 -8 -17 -2 -6 6 -7 16 -3 22 5
8 11 8 17 2 6 -6 7 -16 3 -22z m-1679 -10 c62 -24 -6 -77 -77 -61 -59 13 -68
25 -38 57 25 26 53 27 115 4z m-306 -18 c0 -13 -12 -22 -22 -16 -10 6 -1 24
13 24 5 0 9 -4 9 -8z m1318 -60 c5 -15 -8 -15 -43 -2 -14 5 -24 14 -21 19 8
12 59 -2 64 -17z m752 8 c0 -5 -4 -10 -10 -10 -5 0 -10 5 -10 10 0 6 5 10 10
10 6 0 10 -4 10 -10z m-2023 -43 c-2 -7 -19 -12 -38 -12 -19 -1 -50 -4 -70 -9
-24 -5 -45 -4 -59 4 -34 18 -12 25 85 27 63 1 85 -1 82 -10z m178 -47 l30 -7
-37 -7 c-43 -9 -89 1 -67 15 16 10 31 10 74 -1z m291 -15 c14 -14 23 -29 20
-34 -3 -5 -29 -17 -56 -27 -28 -10 -66 -34 -85 -52 -36 -37 -55 -36 -48 0 3
18 -3 27 -31 42 -80 43 -23 93 107 95 60 1 71 -2 93 -24z m1990 -80 c3 -14 14
-30 24 -35 12 -6 16 -17 13 -30 -5 -20 -5 -20 -34 1 -22 16 -29 28 -29 55 0
40 17 45 26 9z m-2547 -32 c16 -36 2 -49 -41 -36 -25 7 -32 14 -30 29 8 41 53
46 71 7z m1271 -79 c0 -7 3 -19 6 -28 10 -26 -22 -19 -67 13 -34 25 -38 31
-23 39 21 12 84 -6 84 -24z m1229 -49 c10 -37 -1 -43 -28 -16 -12 12 -25 21
-31 21 -5 0 -10 13 -10 30 l0 29 30 -17 c18 -10 34 -29 39 -47z m-1921 29 c43
-12 21 -24 -45 -24 -40 0 -63 4 -57 9 17 17 66 24 102 15z m-592 -139 c45 -19
35 -35 -21 -35 -48 0 -64 13 -45 35 15 19 22 19 66 0z m-1 -435 c3 -6 -6 -15
-20 -20 -50 -19 -116 -7 -101 19 9 14 113 15 121 1z m62 -56 c-3 -3 -12 -4
-19 -1 -8 3 -5 6 6 6 11 1 17 -2 13 -5z m1508 -44 c0 -7 -6 -15 -12 -17 -8 -3
-13 4 -13 17 0 13 5 20 13 18 6 -3 12 -11 12 -18z m-101 -102 c-6 -9 -45 -11
-68 -2 -12 5 -14 10 -6 19 8 10 19 10 45 2 19 -5 32 -14 29 -19z m-896 -60
c-2 -14 -13 -24 -30 -29 -32 -8 -38 -4 -38 28 0 20 5 23 36 23 31 0 35 -3 32
-22z m552 -29 c0 -5 -11 -9 -25 -9 -14 0 -25 6 -25 14 0 9 8 12 25 8 14 -2 25
-8 25 -13z m-1367 -96 c-7 -2 -19 -2 -25 0 -7 3 -2 5 12 5 14 0 19 -2 13 -5z
m996 -72 c23 -15 5 -41 -28 -41 -39 0 -61 9 -61 25 0 23 61 34 89 16z m-312
-108 c6 -16 -33 -26 -65 -18 l-27 8 30 13 c34 15 57 14 62 -3z m351 -127 l3
-26 -73 1 c-40 1 -63 4 -52 6 12 2 33 17 48 33 21 24 30 28 48 21 15 -5 24
-18 26 -35z m857 -65 c19 -8 19 -8 -3 -15 -12 -4 -27 -16 -32 -27 -7 -12 -21
-19 -40 -19 -35 0 -40 7 -33 43 5 24 9 27 47 26 22 0 50 -4 61 -8z m333 -6 c1
-6 -7 -10 -18 -9 -71 2 -90 5 -90 12 0 12 104 9 108 -3z m-787 -66 c16 -31
-14 -49 -55 -33 -14 6 -14 9 6 29 29 29 35 30 49 4z m3926 -64 c7 -20 -21 -52
-53 -58 -20 -4 -24 0 -24 21 0 42 63 72 77 37z m-3598 -84 l25 -19 -42 -21
c-23 -11 -52 -21 -65 -21 -51 0 -64 -51 -19 -74 16 -8 35 -22 42 -31 17 -20
88 -55 112 -55 10 0 30 7 44 16 18 12 45 17 95 16 39 -1 74 -4 80 -7 27 -17
-8 -115 -54 -153 -20 -17 -113 -45 -147 -45 -69 1 -147 22 -180 49 -90 76
-110 117 -110 229 0 51 2 56 28 68 15 6 29 14 32 18 12 15 87 48 110 48 14 0
36 -8 49 -18z m3893 -78 l36 -38 -33 -51 c-20 -31 -47 -57 -68 -68 -20 -9 -39
-21 -42 -26 -3 -6 -41 -10 -83 -9 -131 1 -243 52 -262 119 -8 29 -6 38 11 56
32 34 67 36 119 8 39 -22 52 -24 110 -19 82 8 100 13 100 29 0 20 22 36 50 36
17 0 39 -13 62 -37z m-3002 -499 c0 -26 -17 -33 -26 -9 -8 20 3 48 16 40 5 -3
10 -17 10 -31z m115 -90 c15 -11 17 -18 9 -32 -18 -27 -41 -26 -48 3 -11 44 5
55 39 29z m-55 -114 c-19 -13 -30 -13 -30 0 0 6 10 10 23 10 18 0 19 -2 7 -10z
m-874 -47 c-10 -10 -19 5 -10 18 6 11 8 11 12 0 2 -7 1 -15 -2 -18z m1087 -99
c-7 -19 -49 -18 -57 2 -3 8 -3 27 0 40 l7 25 27 -26 c16 -15 26 -34 23 -41z
m-1157 -61 c-25 -23 -25 -23 -36 -2 -14 24 2 49 31 49 11 0 20 8 20 18 1 9 4
4 6 -12 4 -22 -2 -35 -21 -53z m-678 31 c-3 -20 -44 -32 -59 -17 -10 10 -1 24
26 39 23 14 38 4 33 -22z m2049 0 c13 -4 23 -16 26 -32 7 -36 0 -44 -26 -31
-27 14 -37 28 -37 52 0 18 4 20 37 11z m-1017 -29 c0 -14 -6 -25 -13 -25 -8 0
-19 11 -25 25 -11 23 -10 25 13 25 20 0 25 -5 25 -25z m81 -145 c21 -17 22
-21 9 -30 -8 -5 -34 -10 -57 -10 -36 0 -43 3 -43 19 0 12 11 23 28 29 38 14
37 14 63 -8z m-1061 -29 c0 -11 -4 -23 -10 -26 -6 -4 -10 5 -10 19 0 14 5 26
10 26 6 0 10 -9 10 -19z m1754 -106 c21 -32 20 -73 -3 -108 l-18 -29 -21 34
c-27 45 -35 75 -28 104 9 33 48 32 70 -1z m-1118 -301 c14 -11 15 -17 6 -21
-7 -2 -19 -11 -26 -19 -12 -11 -15 -11 -20 2 -18 48 2 68 40 38z m1062 -79
c-14 -30 -19 -31 -36 -5 -8 13 -23 20 -42 20 -17 0 -30 4 -30 8 0 5 12 7 28 5
22 -3 30 2 46 29 l19 33 13 -32 c11 -25 11 -38 2 -58z m142 61 c0 -8 -4 -18
-10 -21 -5 -3 -10 3 -10 14 0 12 5 21 10 21 6 0 10 -6 10 -14z m-2795 -466
c-3 -5 -13 -10 -21 -10 -8 0 -14 5 -14 10 0 6 9 10 21 10 11 0 17 -4 14 -10z
m-65 -47 c-8 -3 -21 -10 -27 -16 -9 -7 -13 -5 -13 7 0 11 8 16 28 15 15 0 21
-3 12 -6z m2390 3 c0 -11 -19 -15 -25 -6 -3 5 1 10 9 10 9 0 16 -2 16 -4z
m135 -187 c4 -5 4 -22 0 -37 -6 -24 -8 -25 -17 -9 -5 10 -21 22 -34 28 -14 5
-22 13 -19 19 8 13 62 13 70 -1z m-184 -70 c9 -37 -4 -57 -25 -40 -9 8 -16 19
-16 26 0 8 -5 15 -12 17 -19 7 2 29 25 26 13 -2 23 -13 28 -29z m184 -119 c3
-5 1 -10 -4 -10 -6 0 -11 5 -11 10 0 6 2 10 4 10 3 0 8 -4 11 -10z m42 -52
c-3 -8 -6 -5 -6 6 -1 11 2 17 5 13 3 -3 4 -12 1 -19z m-660 -390 c-2 -13 -4
-3 -4 22 0 25 2 35 4 23 2 -13 2 -33 0 -45z m249 18 c9 -22 -13 -53 -41 -58
-23 -5 -25 -2 -25 28 0 23 5 34 18 37 32 9 43 7 48 -7z m-269 -82 c3 -8 -2
-23 -11 -32 -14 -14 -18 -15 -25 -3 -12 18 -2 51 15 51 8 0 17 -7 21 -16z
m367 -103 c3 -5 -1 -14 -8 -20 -16 -13 -32 2 -21 19 8 12 22 13 29 1z m-186
-129 c2 -36 7 -52 17 -52 23 0 29 -22 11 -36 -10 -7 -20 -31 -23 -54 -4 -31
-12 -44 -29 -52 -26 -12 -30 -23 -14 -33 29 -18 -5 -68 -42 -63 -25 3 -64 70
-53 88 3 5 22 10 42 10 35 0 35 1 29 33 -18 85 -18 108 -2 126 9 10 22 35 27
55 14 52 33 40 37 -22z m265 -102 c3 -45 -17 -48 -53 -10 -34 36 -38 64 -12
79 25 14 63 -26 65 -69z m-498 -2 l25 -11 -22 -24 -22 -24 -12 23 c-6 12 -10
28 -7 35 6 16 6 16 38 1z m-1905 -158 c0 -5 -2 -10 -4 -10 -3 0 -8 5 -11 10
-3 6 -1 10 4 10 6 0 11 -4 11 -10z m2318 -47 c-4 -22 -22 -20 -26 1 -2 10 3
16 13 16 10 0 15 -7 13 -17z m-218 -88 c22 -25 32 -55 20 -55 -6 0 -10 7 -10
15 0 8 -8 15 -19 15 -10 0 -32 6 -48 13 -23 9 -29 16 -23 31 9 27 43 38 54 17
5 -9 16 -25 26 -36z m-15 -145 c-3 -5 -10 -10 -16 -10 -5 0 -9 5 -9 10 0 6 7
10 16 10 8 0 12 -4 9 -10z m333 -72 c17 -17 15 -80 -3 -104 -15 -18 -16 -18
-40 11 -27 32 -25 70 3 93 20 15 25 15 40 0z m-328 -122 c-7 -9 -17 -16 -22
-16 -16 0 -21 30 -7 46 11 13 14 13 27 0 13 -12 13 -18 2 -30z m198 -18 c15
-20 86 -25 98 -7 4 7 12 -1 20 -21 19 -43 18 -57 -6 -90 -11 -15 -22 -53 -26
-84 -7 -59 -14 -70 -54 -79 -17 -4 -32 -19 -43 -42 -17 -35 -17 -36 8 -45 35
-13 52 -75 36 -132 -9 -32 -9 -51 -2 -72 14 -35 -3 -106 -24 -106 -10 0 -7 -8
9 -23 38 -38 56 -148 37 -230 -8 -31 -6 -41 9 -55 10 -9 23 -36 30 -60 6 -23
22 -64 35 -89 32 -58 31 -84 0 -111 -31 -27 -31 -32 1 -79 27 -41 50 -50 131
-52 l52 -1 7 -45 c3 -25 10 -48 15 -51 17 -10 9 -34 -11 -34 -24 0 -53 -27
-90 -82 -14 -21 -30 -38 -37 -38 -30 0 -85 -37 -108 -72 -18 -27 -32 -38 -50
-38 -15 0 -28 -7 -32 -17 -17 -48 -45 -58 -81 -30 -10 8 -8 16 11 36 13 14 30
42 37 61 7 19 20 41 28 48 14 10 12 12 -11 12 -17 0 -27 -5 -27 -15 0 -14 -56
-35 -97 -35 -20 0 -22 4 -17 30 4 16 4 40 0 54 -5 22 -11 24 -53 23 l-48 -2 3
52 2 51 -45 17 -45 18 18 31 c9 17 17 32 17 32 0 1 10 4 21 8 27 8 54 -16 54
-50 0 -20 5 -24 28 -24 23 0 35 9 60 48 34 51 29 75 -11 50 -18 -12 -28 -13
-43 -5 -10 6 -52 10 -93 10 -67 -2 -75 1 -97 24 -13 14 -24 32 -24 40 0 8 -13
27 -30 43 l-29 27 24 34 c32 42 32 83 1 114 -32 32 -56 67 -56 81 0 7 18 19
40 28 22 9 40 20 40 26 0 5 -20 15 -45 21 -34 9 -50 19 -60 40 -20 38 -19 65
4 86 10 10 26 33 35 51 9 17 22 32 29 32 6 1 -1 8 -17 17 -27 14 -30 14 -41
-1 -7 -9 -20 -16 -29 -16 -22 0 -21 41 3 62 28 24 36 85 15 109 -14 16 -15 24
-6 44 18 38 65 58 123 50 48 -7 49 -6 49 19 0 21 -6 28 -30 33 -16 3 -30 8
-30 12 0 4 -15 15 -34 25 -24 13 -35 27 -38 46 -4 27 -1 29 34 35 46 8 105
-10 113 -34 3 -10 1 -31 -5 -46 -5 -14 -8 -31 -4 -36 9 -15 40 -10 65 10 13
10 41 24 62 30 20 7 37 16 37 21 0 5 12 22 26 39 19 23 39 33 85 43 45 9 59
16 57 28 -2 10 -12 14 -31 12 -40 -5 -56 12 -48 51 8 39 47 57 91 40 33 -13
50 -1 50 34 0 29 -21 38 -50 23 -27 -14 -50 2 -50 35 0 39 31 40 58 3z m-1640
-59 c1 -8 -14 -32 -33 -54 -20 -21 -41 -47 -46 -57 -8 -14 -14 -16 -28 -8 -27
14 -15 58 25 99 19 19 34 38 34 42 0 14 45 -7 48 -22z m1384 -9 c7 -11 18 -20
25 -20 6 0 30 -18 54 -40 l42 -39 -27 -11 c-15 -5 -35 -10 -45 -10 -12 0 -22
-13 -31 -40 -10 -32 -18 -40 -37 -40 -33 0 -32 51 2 78 14 11 25 26 25 33 0
23 -39 79 -55 79 -18 0 -20 16 -2 23 24 10 37 7 49 -13z m1145 -40 c14 -11 31
-20 38 -20 6 0 20 -9 30 -20 10 -11 23 -20 30 -20 18 0 48 -37 40 -49 -3 -6
-15 -11 -25 -11 -10 0 -47 -7 -81 -16 -49 -13 -86 -15 -160 -9 -86 6 -101 4
-138 -14 -46 -24 -70 -26 -128 -8 l-42 13 38 42 c49 53 92 71 200 82 60 7 93
15 111 29 32 26 56 26 87 1z m-1267 -13 c0 -16 -27 -54 -33 -47 -3 3 -8 17
-12 33 -6 24 -5 27 19 27 15 0 26 -6 26 -13z m780 -187 c0 -5 -4 -10 -10 -10
-5 0 -10 5 -10 10 0 6 5 10 10 10 6 0 10 -4 10 -10z m-39 -51 c-2 -8 -7 -29
-11 -47 -8 -34 -36 -72 -52 -72 -19 0 -68 59 -68 82 0 42 14 52 43 33 20 -13
30 -14 46 -5 12 6 21 15 21 21 0 6 6 9 13 6 6 -2 10 -11 8 -18z m42 -1131 c-2
-5 -3 -19 -3 -33 0 -20 -5 -25 -25 -25 -31 0 -41 20 -25 50 7 14 19 20 33 18
12 -2 21 -6 20 -10z m-228 -227 c9 -28 -11 -72 -30 -65 -17 7 -19 22 -5 58 11
31 26 34 35 7z m-8 -237 c3 -8 -36 -34 -51 -34 -8 0 -16 32 -10 41 8 13 56 7
61 -7z m-1152 -588 c18 -13 18 -18 7 -48 -6 -19 -12 -43 -12 -54 0 -33 -46
-145 -73 -179 -15 -19 -46 -40 -74 -51 -26 -9 -55 -23 -63 -30 -10 -8 -23 -9
-39 -3 -22 9 -23 13 -19 73 4 39 13 76 24 93 11 15 27 44 37 63 10 19 36 49
58 65 128 96 123 94 154 71z m553 -156 c15 -24 2 -91 -29 -151 -11 -22 -24
-59 -28 -82 -5 -23 -21 -94 -36 -157 -15 -63 -35 -158 -45 -210 -10 -52 -28
-126 -39 -165 -12 -38 -24 -83 -27 -100 -4 -16 -20 -41 -36 -54 -44 -36 -66
-20 -121 89 -46 89 -47 95 -41 154 11 100 80 259 156 364 22 29 44 67 50 85
14 41 119 230 132 239 20 14 51 8 64 -12z m513 -205 c7 -37 -12 -153 -29 -180
-4 -5 -17 -48 -29 -95 -12 -47 -29 -110 -38 -140 -8 -30 -15 -67 -15 -83 0
-15 -11 -45 -25 -65 -28 -41 -27 -42 -26 68 1 36 -5 88 -12 115 -8 28 -11 60
-7 71 5 11 11 56 15 100 12 150 68 258 130 252 26 -3 31 -8 36 -43z"/>
<path d="M20678 3513 c6 -2 18 -2 25 0 6 3 1 5 -13 5 -14 0 -19 -2 -12 -5z"/>
<path d="M21125 3470 c-3 -5 1 -10 9 -10 9 0 16 5 16 10 0 6 -4 10 -9 10 -6 0
-13 -4 -16 -10z"/>
<path d="M20786 3448 c-19 -26 -13 -38 20 -38 29 0 42 24 24 45 -17 20 -26 19
-44 -7z"/>
<path d="M21030 3433 c-27 -11 -60 -57 -49 -68 7 -7 15 -3 27 12 11 14 33 25
60 29 25 4 41 11 39 18 -4 12 -54 18 -77 9z"/>
<path d="M21077 3153 c-12 -11 -8 -23 8 -23 8 0 15 7 15 15 0 16 -12 20 -23 8z"/>
<path d="M21130 3036 c0 -8 -3 -21 -6 -30 -4 -11 -1 -16 10 -16 11 0 16 9 16
30 0 17 -4 30 -10 30 -5 0 -10 -6 -10 -14z"/>
<path d="M20945 2862 c-8 -8 -6 -42 3 -42 4 0 18 9 31 19 l24 18 -26 5 c-15 3
-29 3 -32 0z"/>
<path d="M21175 2859 c-10 -15 3 -25 16 -12 7 7 7 13 1 17 -6 3 -14 1 -17 -5z"/>
<path d="M21121 2581 c-12 -8 -13 -12 -1 -26 12 -14 15 -14 28 -1 8 8 11 19 8
25 -9 13 -16 14 -35 2z"/>
</g>
</svg>
